<?xml version="1.0" encoding="utf-8"?>
<!-- Generator: Adobe Illustrator 23.0.1, SVG Export Plug-In . SVG Version: 6.00 Build 0)  -->
<svg version="1.1" id="Layer_1" xmlns="http://www.w3.org/2000/svg" xmlns:xlink="http://www.w3.org/1999/xlink" x="0px" y="0px"
	 viewBox="0 0 199.1 72.3" style="enable-background:new 0 0 199.1 72.3;" xml:space="preserve">
<style type="text/css">
	.st0{fill:#231F20;}
	.st1{fill:#FFFFFF;}
</style>
<g>
	<g>
		<g>
			<g>
				<rect class="st0" width="75.1" height="72.3"/>
			</g>
		</g>
		<g>
			<g>
				<polygon class="st1" points="26.9,10.2 43.5,45.9 36.5,62.2 11.9,10.2 				"/>
			</g>
			<g>
				<polygon class="st1" points="46.8,10.2 63.4,45.9 56.3,62.2 31.8,10.2 				"/>
			</g>
		</g>
	</g>
	<g>
		<path class="st0" d="M87.8,55.7l-9.3-39h8.1l5.9,26.8l7.1-26.8h9.4l6.8,27.3l6-27.3h7.9l-9.5,39h-8.4l-7.8-29.2l-7.7,29.2H87.8z"
			/>
		<path class="st0" d="M157.3,41.3l7.6,2.4c-1.2,4.3-3.1,7.4-5.8,9.5c-2.7,2.1-6.2,3.1-10.4,3.1c-5.2,0-9.4-1.8-12.8-5.3
			c-3.3-3.5-5-8.4-5-14.5c0-6.5,1.7-11.5,5-15.1c3.4-3.6,7.8-5.4,13.2-5.4c4.8,0,8.7,1.4,11.6,4.2c1.8,1.7,3.1,4.1,4,7.2l-7.8,1.9
			c-0.5-2-1.4-3.6-2.9-4.8c-1.5-1.2-3.2-1.8-5.3-1.8c-2.9,0-5.2,1-7,3.1c-1.8,2.1-2.7,5.4-2.7,10.1c0,4.9,0.9,8.5,2.7,10.5
			c1.8,2.1,4.1,3.1,6.9,3.1c2.1,0,3.9-0.7,5.4-2C155.5,46.3,156.6,44.2,157.3,41.3z"/>
		<path class="st0" d="M167.4,43l7.7-0.7c0.5,2.6,1.4,4.5,2.8,5.7c1.4,1.2,3.3,1.8,5.7,1.8c2.5,0,4.5-0.5,5.7-1.6
			c1.3-1.1,1.9-2.3,1.9-3.8c0-0.9-0.3-1.7-0.8-2.4c-0.5-0.6-1.5-1.2-2.8-1.7c-0.9-0.3-3-0.9-6.3-1.7c-4.2-1-7.2-2.3-8.9-3.9
			c-2.4-2.1-3.6-4.8-3.6-7.9c0-2,0.6-3.8,1.7-5.6c1.1-1.7,2.8-3,4.9-4c2.1-0.9,4.7-1.4,7.7-1.4c4.9,0,8.6,1.1,11.1,3.2
			c2.5,2.1,3.8,5,3.9,8.6l-7.9,0.3c-0.3-2-1.1-3.4-2.2-4.3c-1.1-0.9-2.8-1.3-5-1.3c-2.3,0-4.1,0.5-5.4,1.4c-0.8,0.6-1.3,1.4-1.3,2.4
			c0,0.9,0.4,1.7,1.2,2.4c1,0.8,3.4,1.7,7.2,2.6c3.8,0.9,6.7,1.8,8.5,2.8c1.8,1,3.3,2.3,4.3,4c1,1.7,1.6,3.7,1.6,6.2
			c0,2.2-0.6,4.3-1.9,6.3c-1.2,2-3,3.4-5.3,4.4c-2.3,0.9-5.1,1.4-8.5,1.4c-4.9,0-8.7-1.1-11.4-3.4C169.5,50.7,167.9,47.3,167.4,43z"
			/>
	</g>
</g>
</svg>
